<mxfile modified="2021-08-24T18:51:47.476Z" host="app.diagrams.net" agent="5.0 (Windows NT 10.0; Win64; x64) AppleWebKit/537.36 (KHTML, like Gecko) Chrome/92.0.4515.131 Safari/537.36" etag="o85fYWVIR165ss-V_OMu" version="14.9.7" type="github">
  <diagram id="f106602c-feb2-e66a-4537-3a34d633f6aa" name="Page-1">
    <mxGraphModel dx="868" dy="482" grid="1" gridSize="10" guides="1" tooltips="1" connect="1" arrows="1" fold="1" page="1" pageScale="1" pageWidth="1169" pageHeight="827" background="none" math="0" shadow="0">
      <root>
        <mxCell id="0" />
        <mxCell id="1" parent="0" />
        <mxCell id="14" value="&lt;b&gt;Firebase Platform&lt;/b&gt;" style="shadow=0;fontSize=14;align=left;spacing=10;9E9E9E;verticalAlign=top;spacingTop=-4;fontStyle=0;spacingLeft=40;html=1;dashed=1;" parent="1" vertex="1">
          <mxGeometry x="470" y="100" width="420" height="430" as="geometry" />
        </mxCell>
        <mxCell id="GIrOnxZxADJu_TroMDEl-767" style="edgeStyle=orthogonalEdgeStyle;rounded=0;orthogonalLoop=1;jettySize=auto;html=1;entryX=0;entryY=0.5;entryDx=0;entryDy=0;fontColor=#0F8FFF;strokeColor=#179AFF;strokeWidth=2;" edge="1" parent="14" source="GIrOnxZxADJu_TroMDEl-737" target="GIrOnxZxADJu_TroMDEl-760">
          <mxGeometry relative="1" as="geometry" />
        </mxCell>
        <mxCell id="GIrOnxZxADJu_TroMDEl-737" value="" style="rounded=1;absoluteArcSize=1;arcSize=2;html=1;shadow=0;fontSize=12;align=left;verticalAlign=top;spacing=10;spacingTop=-4;dashed=1;perimeterSpacing=1;" vertex="1" parent="14">
          <mxGeometry x="20" y="240" width="160" height="170" as="geometry" />
        </mxCell>
        <mxCell id="15" value="" style="shape=mxgraph.gcp2.google_cloud_platform;fillColor=#F6F6F6;strokeColor=none;shadow=0;gradientColor=none;" parent="14" vertex="1">
          <mxGeometry width="23" height="20" relative="1" as="geometry">
            <mxPoint x="20" y="10" as="offset" />
          </mxGeometry>
        </mxCell>
        <mxCell id="GIrOnxZxADJu_TroMDEl-722" value="" style="strokeColor=#dddddd;shadow=1;strokeWidth=1;rounded=1;absoluteArcSize=1;arcSize=2;dashed=1;" vertex="1" parent="14">
          <mxGeometry x="30" y="50" width="120" height="60" as="geometry" />
        </mxCell>
        <mxCell id="GIrOnxZxADJu_TroMDEl-723" value="&lt;font color=&quot;#000000&quot;&gt;Cloud &lt;br&gt;Messaging&lt;/font&gt;&lt;br&gt;Firebase" style="dashed=0;connectable=0;html=1;fillColor=#5184F3;strokeColor=none;shape=mxgraph.gcp2.firebase;part=1;labelPosition=right;verticalLabelPosition=middle;align=left;verticalAlign=middle;spacingLeft=5;fontColor=#999999;fontSize=12;" vertex="1" parent="GIrOnxZxADJu_TroMDEl-722">
          <mxGeometry width="32.4" height="45" relative="1" as="geometry">
            <mxPoint x="5" y="7" as="offset" />
          </mxGeometry>
        </mxCell>
        <mxCell id="GIrOnxZxADJu_TroMDEl-731" value="" style="strokeColor=#dddddd;shadow=1;strokeWidth=1;rounded=1;absoluteArcSize=1;arcSize=2;dashed=1;fontColor=#0F8FFF;" vertex="1" parent="14">
          <mxGeometry x="40" y="250" width="120" height="60" as="geometry" />
        </mxCell>
        <mxCell id="GIrOnxZxADJu_TroMDEl-732" value="&lt;font color=&quot;#000000&quot;&gt;Firestore&lt;br&gt;&lt;/font&gt;Firebase" style="dashed=0;connectable=0;html=1;fillColor=#5184F3;strokeColor=none;shape=mxgraph.gcp2.firebase;part=1;labelPosition=right;verticalLabelPosition=middle;align=left;verticalAlign=middle;spacingLeft=5;fontColor=#999999;fontSize=12;" vertex="1" parent="GIrOnxZxADJu_TroMDEl-731">
          <mxGeometry width="32.4" height="45" relative="1" as="geometry">
            <mxPoint x="5" y="7" as="offset" />
          </mxGeometry>
        </mxCell>
        <mxCell id="GIrOnxZxADJu_TroMDEl-735" value="" style="strokeColor=#dddddd;shadow=1;strokeWidth=1;rounded=1;absoluteArcSize=1;arcSize=2;dashed=1;fontColor=#0F8FFF;" vertex="1" parent="14">
          <mxGeometry x="40" y="330" width="120" height="60" as="geometry" />
        </mxCell>
        <mxCell id="GIrOnxZxADJu_TroMDEl-736" value="&lt;font color=&quot;#000000&quot;&gt;Cloud &lt;br&gt;Functions&lt;/font&gt;&lt;br&gt;Firebase" style="dashed=0;connectable=0;html=1;fillColor=#5184F3;strokeColor=none;shape=mxgraph.gcp2.firebase;part=1;labelPosition=right;verticalLabelPosition=middle;align=left;verticalAlign=middle;spacingLeft=5;fontColor=#999999;fontSize=12;" vertex="1" parent="GIrOnxZxADJu_TroMDEl-735">
          <mxGeometry width="32.4" height="45" relative="1" as="geometry">
            <mxPoint x="5" y="7" as="offset" />
          </mxGeometry>
        </mxCell>
        <mxCell id="GIrOnxZxADJu_TroMDEl-744" value="" style="strokeColor=#dddddd;shadow=1;strokeWidth=1;rounded=1;absoluteArcSize=1;arcSize=2;dashed=1;fontColor=#0F8FFF;" vertex="1" parent="14">
          <mxGeometry x="30" y="150" width="120" height="65" as="geometry" />
        </mxCell>
        <mxCell id="GIrOnxZxADJu_TroMDEl-745" value="&lt;font color=&quot;#000000&quot;&gt;Authentication&lt;/font&gt;&lt;br&gt;Firebase" style="dashed=0;connectable=0;html=1;fillColor=#5184F3;strokeColor=none;shape=mxgraph.gcp2.firebase;part=1;labelPosition=right;verticalLabelPosition=middle;align=left;verticalAlign=middle;spacingLeft=5;fontColor=#999999;fontSize=12;" vertex="1" parent="GIrOnxZxADJu_TroMDEl-744">
          <mxGeometry width="32.4" height="45" relative="1" as="geometry">
            <mxPoint x="5" y="7" as="offset" />
          </mxGeometry>
        </mxCell>
        <mxCell id="GIrOnxZxADJu_TroMDEl-755" value="Analytics and monitoring" style="rounded=1;absoluteArcSize=1;arcSize=2;html=1;shadow=0;fontSize=12;align=left;verticalAlign=top;spacing=10;spacingTop=-4;dashed=1;perimeterSpacing=1;" vertex="1" parent="14">
          <mxGeometry x="240" y="50" width="160" height="170" as="geometry" />
        </mxCell>
        <mxCell id="GIrOnxZxADJu_TroMDEl-756" value="" style="strokeColor=#dddddd;shadow=1;strokeWidth=1;rounded=1;absoluteArcSize=1;arcSize=2;dashed=1;fontColor=#0F8FFF;" vertex="1" parent="14">
          <mxGeometry x="260" y="80" width="120" height="60" as="geometry" />
        </mxCell>
        <mxCell id="GIrOnxZxADJu_TroMDEl-757" value="&lt;font color=&quot;#000000&quot;&gt;Crashlytics&lt;br&gt;&lt;/font&gt;Firebase" style="dashed=0;connectable=0;html=1;fillColor=#5184F3;strokeColor=none;shape=mxgraph.gcp2.firebase;part=1;labelPosition=right;verticalLabelPosition=middle;align=left;verticalAlign=middle;spacingLeft=5;fontColor=#999999;fontSize=12;" vertex="1" parent="GIrOnxZxADJu_TroMDEl-756">
          <mxGeometry width="32.4" height="45" relative="1" as="geometry">
            <mxPoint x="5" y="7" as="offset" />
          </mxGeometry>
        </mxCell>
        <mxCell id="GIrOnxZxADJu_TroMDEl-758" value="" style="strokeColor=#dddddd;shadow=1;strokeWidth=1;rounded=1;absoluteArcSize=1;arcSize=2;dashed=1;fontColor=#0F8FFF;" vertex="1" parent="14">
          <mxGeometry x="260" y="150" width="120" height="60" as="geometry" />
        </mxCell>
        <mxCell id="GIrOnxZxADJu_TroMDEl-759" value="&lt;font color=&quot;#000000&quot;&gt;Analytics&lt;/font&gt;&lt;br&gt;Firebase" style="dashed=0;connectable=0;html=1;fillColor=#5184F3;strokeColor=none;shape=mxgraph.gcp2.firebase;part=1;labelPosition=right;verticalLabelPosition=middle;align=left;verticalAlign=middle;spacingLeft=5;fontColor=#999999;fontSize=12;" vertex="1" parent="GIrOnxZxADJu_TroMDEl-758">
          <mxGeometry width="32.4" height="45" relative="1" as="geometry">
            <mxPoint x="5" y="7" as="offset" />
          </mxGeometry>
        </mxCell>
        <mxCell id="GIrOnxZxADJu_TroMDEl-760" value="" style="strokeColor=#dddddd;shadow=1;strokeWidth=1;rounded=1;absoluteArcSize=1;arcSize=2;dashed=1;fontColor=#0F8FFF;" vertex="1" parent="14">
          <mxGeometry x="260" y="292.5" width="120" height="65" as="geometry" />
        </mxCell>
        <mxCell id="GIrOnxZxADJu_TroMDEl-761" value="&lt;font color=&quot;#000000&quot;&gt;Storage&lt;/font&gt;&lt;br&gt;Firebase" style="dashed=0;connectable=0;html=1;fillColor=#5184F3;strokeColor=none;shape=mxgraph.gcp2.firebase;part=1;labelPosition=right;verticalLabelPosition=middle;align=left;verticalAlign=middle;spacingLeft=5;fontColor=#999999;fontSize=12;" vertex="1" parent="GIrOnxZxADJu_TroMDEl-760">
          <mxGeometry width="32.4" height="45" relative="1" as="geometry">
            <mxPoint x="5" y="7" as="offset" />
          </mxGeometry>
        </mxCell>
        <mxCell id="GIrOnxZxADJu_TroMDEl-764" style="edgeStyle=orthogonalEdgeStyle;rounded=0;orthogonalLoop=1;jettySize=auto;html=1;fontColor=#0F8FFF;strokeColor=#179AFF;strokeWidth=2;" edge="1" parent="1" source="706" target="GIrOnxZxADJu_TroMDEl-744">
          <mxGeometry relative="1" as="geometry" />
        </mxCell>
        <mxCell id="GIrOnxZxADJu_TroMDEl-765" style="edgeStyle=orthogonalEdgeStyle;rounded=0;orthogonalLoop=1;jettySize=auto;html=1;fontColor=#0F8FFF;strokeColor=#179AFF;strokeWidth=2;entryX=0.006;entryY=0.128;entryDx=0;entryDy=0;entryPerimeter=0;" edge="1" parent="1" source="706" target="GIrOnxZxADJu_TroMDEl-737">
          <mxGeometry relative="1" as="geometry">
            <Array as="points">
              <mxPoint x="450" y="300" />
              <mxPoint x="450" y="361" />
            </Array>
          </mxGeometry>
        </mxCell>
        <mxCell id="706" value="React Native Mobile App" style="rounded=1;absoluteArcSize=1;arcSize=2;html=1;shadow=0;fontSize=12;align=left;verticalAlign=top;spacing=10;spacingTop=-4;dashed=1;perimeterSpacing=1;" parent="1" vertex="1">
          <mxGeometry x="240" y="240" width="160" height="120" as="geometry" />
        </mxCell>
        <mxCell id="2" value="Reelfresh: Serverless mobile app" style="fillColor=#4DA1F5;strokeColor=none;shadow=1;gradientColor=none;fontSize=14;align=left;spacingLeft=50;fontColor=#ffffff;html=1;" parent="1" vertex="1">
          <mxGeometry x="230" y="40" width="660" height="40" as="geometry" />
        </mxCell>
        <mxCell id="GIrOnxZxADJu_TroMDEl-720" value="" style="shape=image;html=1;verticalAlign=top;verticalLabelPosition=bottom;labelBackgroundColor=#ffffff;imageAspect=0;aspect=fixed;image=https://cdn0.iconfinder.com/data/icons/logos-brands-in-colors/128/react_color-128.png;dashed=1;" vertex="1" parent="1">
          <mxGeometry x="283" y="278" width="74" height="74" as="geometry" />
        </mxCell>
        <mxCell id="GIrOnxZxADJu_TroMDEl-724" style="edgeStyle=orthogonalEdgeStyle;rounded=0;orthogonalLoop=1;jettySize=auto;html=1;entryX=0.5;entryY=0;entryDx=0;entryDy=0;labelPosition=left;verticalLabelPosition=top;align=right;verticalAlign=bottom;fontColor=#0F8FFF;strokeColor=#179AFF;strokeWidth=2;" edge="1" parent="1" source="GIrOnxZxADJu_TroMDEl-722" target="706">
          <mxGeometry relative="1" as="geometry" />
        </mxCell>
        <mxCell id="GIrOnxZxADJu_TroMDEl-730" value="Push Notifications" style="edgeLabel;html=1;align=center;verticalAlign=middle;resizable=0;points=[];" vertex="1" connectable="0" parent="GIrOnxZxADJu_TroMDEl-724">
          <mxGeometry x="-0.166" y="-2" relative="1" as="geometry">
            <mxPoint as="offset" />
          </mxGeometry>
        </mxCell>
        <mxCell id="GIrOnxZxADJu_TroMDEl-742" value="&lt;font style=&quot;font-size: 8px&quot;&gt;APP REQUESTS &lt;br&gt;/ RESPONSE&lt;/font&gt;" style="text;html=1;align=center;verticalAlign=middle;resizable=0;points=[];autosize=1;strokeColor=none;fontColor=#0F8FFF;" vertex="1" parent="1">
          <mxGeometry x="390" y="352" width="80" height="40" as="geometry" />
        </mxCell>
        <mxCell id="GIrOnxZxADJu_TroMDEl-766" style="edgeStyle=orthogonalEdgeStyle;rounded=0;orthogonalLoop=1;jettySize=auto;html=1;entryX=0;entryY=0.75;entryDx=0;entryDy=0;fontColor=#0F8FFF;strokeColor=#179AFF;strokeWidth=2;" edge="1" parent="1" source="GIrOnxZxADJu_TroMDEl-762" target="GIrOnxZxADJu_TroMDEl-737">
          <mxGeometry relative="1" as="geometry">
            <Array as="points">
              <mxPoint x="460" y="440" />
              <mxPoint x="460" y="468" />
            </Array>
          </mxGeometry>
        </mxCell>
        <mxCell id="GIrOnxZxADJu_TroMDEl-762" value="Admin app" style="rounded=1;absoluteArcSize=1;arcSize=2;html=1;shadow=0;fontSize=12;align=left;verticalAlign=top;spacing=10;spacingTop=-4;dashed=1;perimeterSpacing=1;" vertex="1" parent="1">
          <mxGeometry x="240" y="390" width="160" height="120" as="geometry" />
        </mxCell>
        <mxCell id="GIrOnxZxADJu_TroMDEl-763" value="" style="shape=image;html=1;verticalAlign=top;verticalLabelPosition=bottom;labelBackgroundColor=#ffffff;imageAspect=0;aspect=fixed;image=https://cdn3.iconfinder.com/data/icons/logos-3/250/angular-128.png;dashed=1;fontColor=#0F8FFF;strokeColor=#000000;" vertex="1" parent="1">
          <mxGeometry x="266" y="402" width="108" height="108" as="geometry" />
        </mxCell>
      </root>
    </mxGraphModel>
  </diagram>
</mxfile>
